HIERARCHY
ROOT Hips
{
	OFFSET 0.00000 0.00000 0.00000
	CHANNELS 6 Xposition Yposition Zposition Zrotation Yrotation Xrotation 
	JOINT LHipJoint
	{
		OFFSET 0 0 0
		CHANNELS 3 Zrotation Yrotation Xrotation
		JOINT LeftUpLeg
		{
			OFFSET 1.17584 -1.63585 1.00361
			CHANNELS 3 Zrotation Yrotation Xrotation
			JOINT LeftLeg
			{
				OFFSET 2.23889 -6.15131 0.00000
				CHANNELS 3 Zrotation Yrotation Xrotation
				JOINT LeftFoot
				{
					OFFSET 2.65161 -7.28525 0.00000
					CHANNELS 3 Zrotation Yrotation Xrotation
					JOINT LeftToeBase
					{
						OFFSET 0.24898 -0.68407 1.57235
						CHANNELS 3 Zrotation Yrotation Xrotation
						End Site
						{
							OFFSET 0.00000 -0.00000 0.85838
						}
					}
				}
			}
		}
	}
	JOINT RHipJoint
	{
		OFFSET 0 0 0
		CHANNELS 3 Zrotation Yrotation Xrotation
		JOINT RightUpLeg
		{
			OFFSET -1.15592 -1.63585 1.00361
			CHANNELS 3 Zrotation Yrotation Xrotation
			JOINT RightLeg
			{
				OFFSET -2.34071 -6.43104 0.00000
				CHANNELS 3 Zrotation Yrotation Xrotation
				JOINT RightFoot
				{
					OFFSET -2.59113 -7.11908 0.00000
					CHANNELS 3 Zrotation Yrotation Xrotation
					JOINT RightToeBase
					{
						OFFSET -0.17867 -0.49089 1.70981
						CHANNELS 3 Zrotation Yrotation Xrotation
						End Site
						{
							OFFSET -0.00000 -0.00000 0.89861
						}
					}
				}
			}
		}
	}
	JOINT LowerBack
	{
		OFFSET 0 0 0
		CHANNELS 3 Zrotation Yrotation Xrotation
		JOINT Spine
		{
			OFFSET -0.02255 1.90764 -0.16605
			CHANNELS 3 Zrotation Yrotation Xrotation
			JOINT Spine1
			{
				OFFSET -0.00365 1.92150 -0.04898
				CHANNELS 3 Zrotation Yrotation Xrotation
				JOINT Neck
				{
					OFFSET 0 0 0
					CHANNELS 3 Zrotation Yrotation Xrotation
					JOINT Neck1
					{
						OFFSET 0.00372 1.59170 0.08694
						CHANNELS 3 Zrotation Yrotation Xrotation
						JOINT Head
						{
							OFFSET 0.12558 1.58643 -0.08078
							CHANNELS 3 Zrotation Yrotation Xrotation
							End Site
							{
								OFFSET 0.04211 1.60835 -0.03803
							}
						}
					}
				}
				JOINT LeftShoulder
				{
					OFFSET 0 0 0
					CHANNELS 3 Zrotation Yrotation Xrotation
					JOINT LeftArm
					{
						OFFSET 3.69324 0.96316 0.19077
						CHANNELS 3 Zrotation Yrotation Xrotation
						JOINT LeftForeArm
						{
							OFFSET 4.87796 -0.00000 -0.00000
							CHANNELS 3 Zrotation Yrotation Xrotation
							JOINT LeftHand
							{
								OFFSET 3.23169 -0.00000 0.00000
								CHANNELS 3 Zrotation Yrotation Xrotation
								JOINT LeftFingerBase
								{
									OFFSET 0 0 0
									CHANNELS 3 Zrotation Yrotation Xrotation
									JOINT LeftHandIndex1
									{
										OFFSET 0.73132 -0.00000 0.00000
										CHANNELS 3 Zrotation Yrotation Xrotation
										End Site
										{
											OFFSET 0.58961 -0.00000 0.00000
										}
									}
								}
								JOINT LThumb
								{
									OFFSET 0 0 0
									CHANNELS 3 Zrotation Yrotation Xrotation
									End Site
									{
										OFFSET 0.59861 -0.00000 0.59861
									}
								}
							}
						}
					}
				}
				JOINT RightShoulder
				{
					OFFSET 0 0 0
					CHANNELS 3 Zrotation Yrotation Xrotation
					JOINT RightArm
					{
						OFFSET -3.66103 0.75145 0.08281
						CHANNELS 3 Zrotation Yrotation Xrotation
						JOINT RightForeArm
						{
							OFFSET -4.91430 -0.00000 0.00000
							CHANNELS 3 Zrotation Yrotation Xrotation
							JOINT RightHand
							{
								OFFSET -3.29093 -0.00000 0.00000
								CHANNELS 3 Zrotation Yrotation Xrotation
								JOINT RightFingerBase
								{
									OFFSET 0 0 0
									CHANNELS 3 Zrotation Yrotation Xrotation
									JOINT RightHandIndex1
									{
										OFFSET -0.54512 -0.00000 0.00000
										CHANNELS 3 Zrotation Yrotation Xrotation
										End Site
										{
											OFFSET -0.43949 -0.00000 0.00000
										}
									}
								}
								JOINT RThumb
								{
									OFFSET 0 0 0
									CHANNELS 3 Zrotation Yrotation Xrotation
									End Site
									{
										OFFSET -0.44620 -0.00000 0.44620
									}
								}
							}
						}
					}
				}
			}
		}
	}
}
MOTION
Frames: 12
Frame Time: .0083333
-13.3547 13.9566 0.6431 776.9610 -43.8706 -279.6400 0.0000 0.0000 0.0000 4.3740 -6.6454 -72.9464 9.4670 17.0990 57.6916 2.3451 2.9359 -30.1027 3.8858 -12.0069 -35.7563 0.0000 0.0000 0.0000 -15.8683 22.5279 -22.2497 -5.4342 -13.8566 42.6662 -0.9549 9.6374 -17.7039 -0.0741 1.7565 -4.8332 1.3509 -8.9271 11.2433 7.4441 -10.7875 3.3242 8.3475 -5.1927 -1.4934 -4.4340 -0.4766 -15.9989 -9.7830 -1.4860 -18.4140 -2.5770 -0.4300 -3.5050 0.0000 0.0000 0.0000 47.5851 -57.8747 -52.9942 20.0771 -30.7351 -5.5707 -0.0000 0.0000 -42.6853 79.8671 -31.1083 -70.9188 -7.1250 0.0000 -0.0000 26.7575 -38.8800 -39.5375 0.0000 0.0000 0.0000 -29.0175 49.7701 -41.7322 -21.1436 31.9956 -6.1258 0.0000 -0.0000 -36.7985 -73.7733 -46.9475 68.2837 7.1250 -0.0000 -0.0000 -144.6181 72.9542 -155.7415
-13.4157 13.9515 0.5744 781.9380 -43.2698 -283.8270 0.0000 0.0000 0.0000 2.4481 -7.1403 -70.2009 8.7758 16.6613 55.3116 2.3351 2.8872 -30.0209 3.8115 -11.9052 -35.3976 0.0000 0.0000 0.0000 -18.3187 22.8016 -24.0361 -6.7054 -15.0787 47.7512 -1.0290 8.9434 -18.2450 -0.0366 1.2349 -3.3955 0.2753 -9.2510 11.1808 7.8507 -11.2877 2.9460 9.4283 -5.4466 -1.4904 -5.1433 -0.4512 -15.8955 -10.1460 -1.3240 -17.9790 -2.5680 -0.2970 -3.3600 -0.0000 0.0000 0.0000 49.0503 -58.2898 -50.8989 19.7405 -30.3285 -5.3997 -0.0000 0.0000 -44.6341 73.2482 -28.1031 -57.4221 -7.1250 0.0000 -0.0000 23.4963 -27.8622 -33.6105 -0.0000 0.0000 0.0000 -27.7248 48.7869 -41.5240 -20.8276 31.6265 -5.9593 0.0000 -0.0000 -35.0967 -73.7471 -46.7304 68.1800 7.1250 -0.0000 -0.0000 -143.9341 73.0143 -155.1961
-13.4716 13.9389 0.4946 786.8310 -42.3829 -287.9020 0.0000 0.0000 0.0000 0.2785 -7.3666 -67.6321 8.0943 16.1882 52.9016 2.3306 2.8579 -29.9814 3.7982 -11.8869 -35.3331 0.0000 0.0000 0.0000 -20.8466 23.2190 -25.7025 -8.0992 -16.1917 52.9191 -1.0859 8.5063 -18.6824 -0.0113 0.6863 -1.8860 -0.8911 -9.5465 11.1906 8.1974 -11.7669 2.5649 10.5069 -5.6890 -1.5003 -5.8136 -0.4208 -15.7393 -10.5200 -1.1680 -17.5880 -2.5700 -0.1690 -3.2440 -0.0000 0.0000 0.0000 50.3910 -58.5386 -48.9973 19.7708 -30.3652 -5.4150 -0.0000 0.0000 -46.3425 64.9835 -23.7165 -40.7580 -7.1250 0.0000 -0.0000 20.2506 -13.6981 -25.9138 -0.0000 0.0000 0.0000 -26.3193 47.5584 -41.0480 -20.6021 31.3609 -5.8415 0.0000 -0.0000 -33.6304 -73.7670 -46.5869 68.1589 7.1250 -0.0000 -0.0000 -143.5197 73.0254 -154.8830
-13.5172 13.9191 0.4050 791.4660 -41.1403 -291.7060 0.0000 0.0000 0.0000 -1.9490 -7.2954 -65.2947 7.4496 15.6991 50.5551 2.3155 2.9032 -29.9068 3.8317 -11.9330 -35.4953 0.0000 0.0000 0.0000 -23.3507 23.9552 -27.2281 -9.5856 -17.1701 58.0940 -1.1378 8.2089 -19.0937 -0.0012 0.2213 -0.6080 -1.9192 -9.8221 11.1509 8.4550 -12.2191 2.2208 11.4000 -5.9168 -1.4750 -6.2378 -0.4052 -15.4661 -11.0050 -1.1110 -17.3280 -2.6610 -0.1000 -3.2000 -0.0000 -0.0000 0.0000 51.6850 -58.7362 -48.0231 20.0195 -30.6658 -5.5413 -0.0000 0.0000 -46.9718 55.7365 -18.6913 -25.1938 -7.1250 0.0000 -0.0000 16.7493 0.1042 -17.4834 -0.0000 -0.0000 0.0000 -24.7690 46.1222 -40.3816 -20.4550 31.1866 -5.7651 0.0000 -0.0000 -32.3352 -73.8536 -46.5136 68.2464 7.1250 -0.0000 -0.0000 -143.3896 72.9743 -154.8255
-13.5513 13.8940 0.3089 795.8090 -39.4553 -295.1850 0.0000 0.0000 0.0000 -4.0693 -7.0276 -63.2302 6.8616 15.2143 48.3491 2.2880 2.9162 -29.7420 3.8534 -11.9627 -35.6003 0.0000 0.0000 0.0000 -25.6957 25.0108 -28.5433 -11.1287 -17.9975 63.1987 -1.1936 7.9382 -19.5378 -0.0003 -0.1143 0.3141 -2.6695 -10.1185 11.0415 8.6809 -12.6712 1.8998 12.0901 -6.1416 -1.4378 -6.5064 -0.4059 -15.0574 -11.5880 -1.1440 -17.1940 -2.8200 -0.0750 -3.2300 -0.0000 0.0000 0.0000 52.7935 -58.9245 -48.2510 20.3484 -31.0599 -5.7100 -0.0000 0.0000 -46.0198 45.6338 -14.5089 -14.3666 -7.1250 0.0000 -0.0000 11.8544 10.0079 -9.8324 -0.0000 0.0000 0.0000 -23.1544 44.5252 -39.5846 -20.3637 31.0780 -5.7179 0.0000 -0.0000 -31.1414 -73.9861 -46.4888 68.4092 7.1250 -0.0000 -0.0000 -143.4589 72.8801 -154.9473
-13.5721 13.8635 0.2071 799.6810 -37.3437 -298.2790 0.0000 0.0000 0.0000 -5.9306 -6.5735 -61.3815 6.3459 14.7554 46.3548 2.2484 2.8401 -29.4626 3.8147 -11.9097 -35.4133 0.0000 0.0000 0.0000 -27.7734 26.5045 -29.5952 -12.6918 -18.6681 68.1656 -1.2578 7.5905 -20.0454 -0.0037 -0.3939 1.0822 -3.0563 -10.4370 10.8708 8.8717 -13.1108 1.6546 12.5190 -6.3582 -1.3685 -6.6126 -0.4314 -14.5995 -12.2910 -1.2600 -17.0790 -3.0540 -0.0980 -3.2830 -0.0000 -0.0000 0.0000 53.5565 -58.9553 -49.3047 20.7082 -31.4861 -5.8968 -0.0000 0.0000 -43.7394 34.2320 -11.9872 -8.0437 -7.1250 0.0000 -0.0000 4.8311 15.6115 -3.3649 -0.0000 -0.0000 0.0000 -21.5408 42.8689 -38.8314 -20.2759 30.9734 -5.6727 0.0000 -0.0000 -29.9348 -74.1361 -46.4845 68.6015 7.1250 -0.0000 -0.0000 -143.6077 72.7691 -155.1396
-13.5783 13.8276 0.1024 803.0760 -34.8602 -300.9910 0.0000 0.0000 0.0000 -7.4764 -6.0343 -59.7326 5.9047 14.3354 44.5982 2.1979 2.6361 -29.0586 3.6982 -11.7475 -34.8446 0.0000 0.0000 0.0000 -29.5710 28.3802 -30.3758 -14.2397 -19.1851 72.9353 -1.3314 7.1079 -20.6278 -0.0101 -0.6483 1.7815 -3.0221 -10.7735 10.5148 8.9653 -13.5348 1.5852 12.5454 -6.5730 -1.1338 -6.2377 -0.4459 -13.9049 -13.4630 -1.5720 -17.4440 -3.1760 -0.1750 -3.1000 0.0000 -0.0000 0.0000 54.1633 -58.6172 -50.7718 21.1071 -31.9532 -6.1065 -0.0000 0.0000 -41.0044 22.1327 -11.6086 -4.6788 -7.1250 0.0000 -0.0000 -3.5125 17.4897 2.2988 0.0000 -0.0000 0.0000 -19.9190 41.1572 -38.4037 -20.1345 30.8041 -5.6001 0.0000 -0.0000 -28.5909 -74.2812 -46.4974 68.7932 7.1250 -0.0000 -0.0000 -143.8028 72.6582 -155.3650
-13.5720 13.7859 0.0002 805.9660 -32.1232 -303.3230 0.0000 0.0000 0.0000 -8.7037 -5.4546 -58.2396 5.5306 13.9575 43.0673 2.1272 2.2799 -28.4594 3.4152 -11.3386 -33.4306 0.0000 0.0000 0.0000 -31.1284 30.6315 -30.9230 -15.7357 -19.5583 77.4433 -1.4125 6.4240 -21.2802 -0.0184 -0.8766 2.4094 -2.6924 -11.1111 10.0649 9.0242 -13.9319 1.6255 12.3359 -6.7751 -0.8197 -6.0535 -0.5406 -13.7949 -14.2270 -1.7510 -17.0280 -3.4460 -0.2770 -2.9900 0.0000 -0.0000 0.0000 54.3554 -57.8920 -52.0253 21.5181 -32.4281 -6.3255 -0.0000 0.0000 -38.6608 10.5807 -13.0906 -2.4226 -7.1250 0.0000 -0.0000 -11.5261 16.8362 7.8555 0.0000 -0.0000 0.0000 -18.3627 39.4749 -38.2328 -19.9352 30.5642 -5.4984 0.0000 -0.0000 -27.1158 -74.4713 -46.5393 69.0524 7.1250 -0.0000 -0.0000 -144.1291 72.5080 -155.7142
-13.5547 13.7382 -0.0962 808.3720 -29.2708 -305.3030 0.0000 0.0000 0.0000 -9.6604 -4.8518 -56.8738 5.2111 13.6177 41.7271 2.0655 1.9272 -27.9152 3.1916 -10.9989 -32.2761 0.0000 0.0000 0.0000 -32.5399 33.2495 -31.3046 -17.1500 -19.8041 81.6409 -1.4951 5.5144 -21.9769 -0.0293 -1.1052 3.0383 -2.2334 -11.4693 9.6161 9.1299 -14.3401 1.6557 12.1094 -6.9773 -0.5380 -6.0698 -0.6328 -13.7785 -14.8880 -1.8280 -16.3120 -3.6460 -0.3430 -2.7710 -0.0000 0.0000 0.0000 53.7456 -56.8625 -52.5110 21.8766 -32.8373 -6.5188 -0.0000 0.0000 -37.1820 1.2219 -15.4167 -0.3249 -7.1250 0.0000 -0.0000 -17.6477 15.0227 13.1177 -0.0000 0.0000 0.0000 -16.9763 37.9870 -38.1317 -19.6933 30.2711 -5.3759 0.0000 -0.0000 -25.5635 -74.7335 -46.6103 69.4143 7.1250 -0.0000 -0.0000 -144.6102 72.2982 -156.2166
-13.5284 13.6850 -0.1838 810.3970 -26.4075 -306.9950 0.0000 0.0000 0.0000 -10.4548 -4.2472 -55.6223 4.9341 13.3092 40.5371 2.0067 1.4906 -27.3561 2.9648 -10.6378 -31.0678 0.0000 0.0000 0.0000 -33.8922 36.2008 -31.5353 -18.4554 -19.9427 85.4797 -1.5745 4.3516 -22.7143 -0.0435 -1.3459 3.7011 -1.7596 -11.8553 9.1830 9.2926 -14.7812 1.6157 11.9489 -7.1906 -0.3248 -6.2688 -0.7138 -13.7660 -15.4960 -1.8160 -15.3510 -3.7970 -0.3750 -2.4740 0.0000 0.0000 0.0000 52.2972 -55.6280 -52.0782 22.1565 -33.1534 -6.6712 -0.0000 0.0000 -36.5013 -4.9023 -17.6423 1.4890 -7.1250 0.0000 -0.0000 -21.3201 13.0726 17.2083 0.0000 0.0000 0.0000 -15.7596 36.7287 -37.9879 -19.4286 29.9477 -5.2431 0.0000 -0.0000 -23.9930 -75.0583 -46.7062 69.8650 7.1250 -0.0000 -0.0000 -145.2144 72.0364 -156.8403
-13.4949 13.6270 -0.2601 812.1650 -23.5745 -308.4550 0.0000 0.0000 0.0000 -11.1989 -3.6764 -54.4937 4.6906 13.0266 39.4683 1.9596 0.9871 -26.8512 2.8267 -10.4091 -30.3118 0.0000 0.0000 0.0000 -35.2263 39.3804 -31.5976 -19.6302 -19.9967 88.9188 -1.6427 2.9108 -23.4757 -0.0655 -1.6514 4.5433 -1.3824 -12.2975 8.7803 9.5607 -15.2964 1.4161 11.9790 -7.4363 -0.2288 -6.7212 -0.7562 -13.6172 -16.0800 -1.6860 -14.1720 -3.8940 -0.3490 -2.1290 0.0000 0.0000 0.0000 49.9501 -54.3298 -50.8284 22.2822 -33.2945 -6.7401 -0.0000 0.0000 -36.0294 -7.5079 -19.4218 2.5093 -7.1250 0.0000 -0.0000 -22.7078 11.4352 19.3841 0.0000 0.0000 0.0000 -14.7638 35.7286 -37.6415 -19.1668 29.6254 -5.1130 0.0000 -0.0000 -22.4978 -75.4096 -46.8288 70.3579 7.1250 -0.0000 -0.0000 -145.9043 71.7483 -157.5367
-13.4539 13.5651 -0.3261 813.7650 -20.7705 -309.7280 0.0000 0.0000 0.0000 -11.9613 -3.1532 -53.4990 4.4786 12.7715 38.5188 1.9262 0.4035 -26.4172 2.7841 -10.3370 -30.0751 0.0000 0.0000 0.0000 -36.5142 42.6852 -31.4500 -20.6638 -19.9894 91.9413 -1.6906 1.1635 -24.2569 -0.0938 -1.9751 5.4369 -1.1561 -12.7872 8.4002 9.9412 -15.8772 1.0545 12.2311 -7.7139 -0.2282 -7.6442 -0.8137 -13.5515 -16.1630 -1.3660 -12.4780 -4.1710 -0.2840 -1.8910 0.0000 -0.0000 0.0000 46.9155 -53.0630 -49.1989 22.1602 -33.1576 -6.6732 -0.0000 0.0000 -34.8859 -7.1390 -20.9467 2.5638 -7.1250 0.0000 -0.0000 -22.3365 10.0124 19.7167 0.0000 -0.0000 0.0000 -13.9914 34.9189 -37.1148 -18.9094 29.3059 -4.9864 0.0000 -0.0000 -21.0777 -75.7162 -46.9635 70.7956 7.1250 -0.0000 -0.0000 -146.5664 71.4912 -158.1831
